# xmcd
#
# Track frame offsets:
#	150
#	18312
#	33522
#	49263
#	65691
#	93845
#	114680
#	131829
#	152965
#	164156
#	188513
#	206158
#
# Disc length: 3089 seconds
#
# Revision: 1
# Processed by: cddbd v1.5.2PL0 Copyright (c) Steve Scherf et al.
# Submitted via: audiograbber 1.83.01
#
DISCID=ae0c0f0c
DTITLE=Various Artist - Southern Family
DYEAR=2016
DGENRE=Country
TTITLE0=John Paul White - Simple Song
TTITLE1=Jason Isbell - God Is a Working Man
TTITLE2=Brent Cobb - Down Home
TTITLE3=Miranda Lambert - Sweet By and By
TTITLE4=Morgane Stapleton - You Are My Sunshine (with Chris Stapleton)
TTITLE5=Zac Brown - Grandma's Garden
TTITLE6=Jamey Johnson - Mama's Table
TTITLE7=Anderson East - Learning
TTITLE8=Holly Williams - Settle Down
TTITLE9=Brandy Clark - I Cried
TTITLE10=Shooter Jennings - Can You Come Over?
TTITLE11=Rich Robinson - The Way Home
EXTD=
EXTT0=
EXTT1=
EXTT2=
EXTT3=
EXTT4=
EXTT5=
EXTT6=
EXTT7=
EXTT8=
EXTT9=
EXTT10=
EXTT11=
PLAYORDER=
